<?xml version="1.0" encoding="UTF-8"?>
<svg width="144px" height="48px" viewBox="0 0 144 48" version="1.1" xmlns="http://www.w3.org/2000/svg" xmlns:xlink="http://www.w3.org/1999/xlink">
    <!-- Generator: Sketch 45.2 (43514) - http://www.bohemiancoding.com/sketch -->
    <title>Logo Desktop</title>
    <desc>Created with Sketch.</desc>
    <defs>
        <polygon id="path-1" points="143.87107 23.9691254 143.87107 0.156587413 0.0100465116 0.156587413 0.0100465116 47.7816635 143.87107 47.7816635"></polygon>
    </defs>
    <g id="Symbols" stroke="none" stroke-width="1" fill="none" fill-rule="evenodd">
        <g id="Header-/-Desktop" transform="translate(-152.000000, -24.000000)">
            <g id="0-Header" transform="translate(152.000000, 24.000000)">
                <g id="Logo-/-Desktop">
                    <g id="flywire-logo">
                        <polyline id="Fill-1" fill="#0084C0" points="30.432893 37.6261259 36.399014 0.156587413 41.2432744 0.156587413 35.2771535 37.6261259 30.432893 37.6261259"></polyline>
                        <path d="M60.0242233,36.9047832 C58.8782512,44.1975944 54.6066419,48 47.8868651,48 C43.771814,48 40.5420279,46.4898462 38.3538977,43.936951 L41.0627721,40.6027972 C42.9384558,42.790993 45.1779907,43.8328951 47.8347907,43.8328951 C51.8977674,43.8328951 54.3983442,41.4887832 55.1799628,36.9047832 L55.4922419,35.0814545 L55.3879256,35.0814545 C53.2004651,37.1132308 50.6479814,38.2071608 47.8347907,38.2071608 C42.6256744,38.2071608 40.1252651,35.6025734 40.1252651,30.6538741 C40.1252651,29.7163636 40.229414,28.7264895 40.3858047,27.6322238 L42.8307907,12.2183497 L47.6226419,12.2183497 L45.2300651,27.6322238 C45.0736744,28.4656783 45.0219349,29.1428811 45.0219349,29.7680559 C45.0219349,32.5812587 46.2718884,33.988028 49.0850791,33.988028 C52.0019163,33.988028 54.6066419,32.2165594 56.3776744,29.1428811 L59.0832,12.2183497 L63.9274605,12.2183497 L60.0242233,36.9047832" id="Fill-2" fill="#0084C0"></path>
                        <path d="M114.537935,16.8016783 L115.562679,12.1236923 L110.787572,12.1236923 L106.723758,37.6910769 L111.568521,37.6910769 L113.719981,23.9667692 C114.670549,18.9344895 118.400484,16.4381538 122.351777,16.4381538 C122.832335,16.4381538 123.182958,16.438993 123.569079,16.4759161 L124.291591,11.9306853 C119.723609,11.2207552 116.295907,13.5437203 114.537935,16.8016783" id="Fill-3" fill="#0084C0"></path>
                        <polyline id="Fill-4" fill="#0084C0" points="96.276893 12.2183497 88.3309395 29.9073566 85.5028465 12.2183497 80.8024186 12.2183497 72.6297488 29.9073566 69.9357767 12.2183497 65.0347535 12.2183497 69.1595163 37.7857343 74.1355535 37.7857343 82.128893 20.0648392 84.9129488 37.7857343 89.8439442 37.7857343 101.364279 12.2183497 96.276893 12.2183497"></polyline>
                        <polyline id="Fill-5" fill="#0084C0" points="97.9690605 37.7857343 102.031702 12.2183497 106.8768 12.2183497 102.813321 37.7857343 97.9690605 37.7857343"></polyline>
                        <path d="M108.11453,7.08923077 C108.11453,8.6206993 106.8696,9.86265734 105.33466,9.86265734 C103.799219,9.86265734 102.554958,8.6206993 102.554958,7.08923077 C102.554958,5.55742657 103.799219,4.3158042 105.33466,4.3158042 C106.8696,4.3158042 108.11453,5.55742657 108.11453,7.08923077" id="Fill-10" fill="#0084C0"></path>
                        <mask id="mask-2" fill="white">
                            <use xlink:href="#path-1"></use>
                        </mask>
                        <g id="Clip-7"></g>
                        <path d="M130.868372,33.936 C129.091981,33.9712448 127.730344,33.4523077 126.832019,32.3974825 C125.887312,31.2886154 125.63347,29.4634406 126.040353,26.9724755 L133.120298,26.9724755 C135.257358,26.9724755 138.141377,26.6846434 140.453414,25.2797203 C142.721247,23.9013147 143.87107,21.7935105 143.87107,19.0142098 C143.87107,17.0868252 143.041395,15.1951888 141.596037,13.8238322 C139.914419,12.2292587 137.507609,11.3865734 134.636986,11.3865734 C124.134195,11.3865734 122.852763,18.8358042 121.822995,24.8233846 L121.45613,27.1072448 C121.013916,30.2979021 121.607833,32.8732867 123.27254,34.9799161 C124.82054,36.9393566 127.470977,38.0186853 130.736093,38.0186853 C141.308372,38.0186853 142.267312,29.1294545 142.267312,29.1294545 L137.815702,29.1294545 C137.815702,29.1294545 137.603553,33.8024056 130.868372,33.936 L130.868372,33.936 Z M126.811088,22.2251748 C127.592372,17.8962797 130.256205,15.5125594 134.312651,15.5125594 C137.285414,15.5125594 139.206474,16.9241958 139.206474,19.109035 C139.206474,21.7904895 137.302995,23.0394965 133.21574,23.0394965 L126.659721,23.0394965 L126.811088,22.2251748 L126.811088,22.2251748 Z" id="Fill-6" fill="#0084C0" mask="url(#mask-2)"></path>
                        <path d="M18.0748465,19.2891189 L18.548707,16.4903497 L1.25062326,16.4903497 L1.96141395,12.0404476 L19.248614,12.0404476 L19.585507,9.91082517 C20.5755907,3.71697902 24.7294884,0.149034965 31.0341767,0.156587413 L34.4975442,0.156587413 L33.8172279,4.49337063 L30.5730419,4.4885035 C27.0669767,4.48430769 25.0642047,6.21952448 24.4301023,10.0893986 L24.1208372,12.0404476 L30.8047814,12.0404476 L30.0965023,16.4903497 L23.4212651,16.4903497 L19.7752186,38.0493986 C18.7842977,44.2439161 14.5635907,47.7895385 8.2244093,47.7816503 L7.85955349,47.7793007 L8.59964651,43.0801678 L8.8364093,43.077986 C12.4049302,43.0821818 14.3234791,41.5711888 14.9538977,37.720951 L17.3211907,23.7395245 L0,23.7395245 L0.710790698,19.2891189 L18.0748465,19.2891189" id="Fill-8" fill="#0084C0" mask="url(#mask-2)"></path>
                    </g>
                </g>
            </g>
        </g>
    </g>
</svg>